# xmcd
#
# Track frame offsets:
#	150
#	28545
#	55823
#	84651
#	109874
#	130767
#	169199
#	193199
#	211790
#	229631
#	244347
# Disc length: 3577 seconds
# Revision: 1
# Processed by: cddbd v1.5.1PL2 Copyright (c) Steve Scherf et al.
#
# Submitted via: libkcddb 0.31
#
DISCID=910df70b
DTITLE=Van Morrison - Too Long In Exile
DYEAR=1993
DGENRE=Blues
TTITLE0=Too Long in Exile
TTITLE1=Big Time Operators
TTITLE2=Lonely Avenue
TTITLE3=Ball and Chain
TTITLE4=In The Forest
TTITLE5=Till We Get the Healing Done
TTITLE6=Gloria
TTITLE7=Good Morning Little School Girl
TTITLE8=Wasted Years
TTITLE9=Lonesome Road
TTITLE10=I'll Take Care of You
EXTD=
EXTT0=
EXTT1=
EXTT2=
EXTT3=
EXTT4=
EXTT5=
EXTT6=
EXTT7=
EXTT8=
EXTT9=
EXTT10=
PLAYORDER=
